<?xml version="1.0" ?><svg enable-background="new 0 0 515.91 728.5" height="512" id="Layer_1" version="1.1" viewBox="0 0 512.00003 512" width="512" xml:space="preserve" xmlns="http://www.w3.org/2000/svg" xmlns:cc="http://creativecommons.org/ns#" xmlns:dc="http://purl.org/dc/elements/1.1/" xmlns:inkscape="http://www.inkscape.org/namespaces/inkscape" xmlns:rdf="http://www.w3.org/1999/02/22-rdf-syntax-ns#" xmlns:sodipodi="http://sodipodi.sourceforge.net/DTD/sodipodi-0.dtd" xmlns:svg="http://www.w3.org/2000/svg"><defs id="defs7"/><g id="g4190" transform="translate(-32.642316,29.549769)"><path d="m -733.62329,72.267944 c 0,203.804876 -165.21649,369.021366 -369.02141,369.021366 -203.8048,0 -369.0213,-165.21649 -369.0213,-369.021366 0,-203.804874 165.2165,-369.021364 369.0213,-369.021364 203.80492,0 369.02141,165.21649 369.02141,369.021364 z" id="path4952" style="fill:#00a1f1;fill-opacity:1;fill-rule:nonzero;stroke:none" transform="matrix(0.69372682,0,0,0.69372682,1053.5765,176.31602)"/><path d="m 397.3139,59.515415 c -2.5211,0.0293 -5.1726,0.1016 -7.8936,0.27289 -21.7778,1.42407 -45.8892,8.013221 -72.4023,19.824107 -3.7859,-0.46308 -7.555,-0.68086 -11.3411,-0.68086 -36.44731,0 -68.74661,11.0995 -96.89921,33.298488 -28.1527,22.20917 -46.5172,50.53865 -55.0276,85.01298 23.6438,-29.73904 50.1292,-51.71879 79.4792,-65.86973 -3.3007,2.82494 -10.8497,10.39691 -22.6825,22.68244 -20.3433,19.83712 -37.9992,41.90976 -52.8953,66.23257 -14.9177,24.32427 -25.55121,46.65825 -31.93681,66.95853 -6.3964,20.31177 -9.5721,38.73061 -9.5721,55.25505 0,16.536 3.7584,28.35413 11.3414,35.42955 21.76701,21.72427 57.50381,20.55714 107.19691,-3.53771 22.2417,10.87154 45.9175,16.28484 70.99601,16.28484 33.5892,0 63.878,-9.7973 90.8657,-29.39637 26.9661,-19.57726 45.8916,-44.73333 56.7968,-75.44063 l -84.5146,0 c -6.1486,10.85998 -14.5422,19.47135 -25.1776,25.85721 -10.6462,6.36275 -22.5121,9.52596 -35.5207,9.52596 -13.0083,0 -24.82881,-3.16321 -35.47521,-9.52596 -10.6461,-6.37568 -19.04,-14.98412 -25.1775,-25.85721 -5.2314,-10.37801 -7.848,-21.28008 -7.848,-32.61763 l 0,-0.68085 137.00171,0 83.78881,0 c 0.4637,-5.2101 0.7258,-11.07915 0.7258,-17.69304 0,-27.85906 -6.87531,-53.85123 -20.59571,-77.98101 14.6695,-39.19809 12.9909,-68.042888 -4.99,-86.466034 -7.8716,-7.436991 -20.5953,-11.045851 -38.2425,-10.887581 z m 11.704,19.234667 c 10.7733,0.0725 19.1406,3.24162 25.1322,9.43591 11.8219,11.820978 12.3005,32.321538 1.4063,61.606138 -17.9812,-27.39745 -42.1247,-47.19827 -72.4023,-59.473608 18.3484,-7.77663 33.6542,-11.65262 45.8638,-11.56844 z M 305.3141,149.79213 c 17.2691,0 32.3105,6.06217 45.0924,18.10092 12.7712,12.04747 19.6011,26.53805 20.5504,43.55024 l -131.33111,0 c 0.9492,-17.01219 7.8029,-31.50277 20.5954,-43.55024 12.7712,-12.03875 27.8021,-18.10092 45.09291,-18.10092 z m -147.29971,137.4547 c 12.782,34.96934 35.0302,62.11278 66.7318,81.47519 -36.4585,16.52444 -61.5291,17.96446 -75.2604,4.26505 -15.6079,-15.58664 -12.7638,-44.17011 8.5286,-85.74024 z" id="path5-1-2" style="fill:#ffffff;fill-opacity:1"/></g></svg>