<?xml version="1.0" ?><!DOCTYPE svg  PUBLIC '-//W3C//DTD SVG 1.1//EN'  'http://www.w3.org/Graphics/SVG/1.1/DTD/svg11.dtd'><svg enable-background="new 0 0 100 100" height="100px" id="Calque_1" version="1.1" viewBox="0 0 100 100" width="100px" xml:space="preserve" xmlns="http://www.w3.org/2000/svg" xmlns:xlink="http://www.w3.org/1999/xlink"><path d="M75.48,25.88c0.949,0,1.72-0.78,1.72-1.72v-6.89c0-0.47-0.181-0.9-0.5-1.22c-0.33-0.32-0.76-0.5-1.22-0.5  c-0.051,0-0.101,0-0.15,0.01v-4.38c0-3.59-2.91-6.51-6.5-6.51H43.21c0.01-0.04,0.01-0.09,0.01-0.13c0-1.01-0.82-1.82-1.82-1.82  h-7.54c-0.48,0-0.94,0.19-1.28,0.53c-0.35,0.35-0.54,0.8-0.54,1.29c0,0.04,0.01,0.09,0.01,0.13h-0.79c-3.59,0-6.51,2.92-6.51,6.51  v4.37h-0.13c-1.01,0-1.82,0.81-1.82,1.82v7.53c0,0.49,0.19,0.95,0.53,1.29s0.8,0.53,1.29,0.53h0.13V90.77  c0,3.591,2.92,6.511,6.51,6.511h37.57c3.59,0,6.5-2.92,6.5-6.511V37.3c0.05,0.01,0.1,0.01,0.15,0.01c0.949,0,1.72-0.77,1.72-1.72  V28.7c0-0.46-0.181-0.89-0.5-1.21c-0.33-0.33-0.76-0.51-1.22-0.51c-0.051,0-0.101,0-0.15,0.01v-1.12  C75.38,25.87,75.43,25.88,75.48,25.88z M54.85,94.12c0,0.36-0.29,0.649-0.649,0.649h-7.45c-0.36,0-0.65-0.289-0.65-0.649v-5.04  c0-0.36,0.29-0.65,0.65-0.65h7.45c0.359,0,0.649,0.29,0.649,0.65V94.12z M67.1,10.46c0,1.08-0.869,1.95-1.949,1.95  c-1.07,0-1.94-0.87-1.94-1.95c0-1.07,0.87-1.94,1.94-1.94C66.23,8.52,67.1,9.39,67.1,10.46z M44.79,8.52H55.3  c1.07,0,1.94,0.87,1.94,1.94c0,1.08-0.87,1.95-1.94,1.95H44.79c-1.08,0-1.95-0.87-1.95-1.95C42.84,9.39,43.71,8.52,44.79,8.52z   M70.7,16.05V85.9H29.38V16.05H70.7z" fill="#010101"/></svg>