<?xml version="1.0" ?><!DOCTYPE svg  PUBLIC '-//W3C//DTD SVG 1.0//EN'  'http://www.w3.org/TR/2001/REC-SVG-20010904/DTD/svg10.dtd'><svg enable-background="new 0 0 32 32" height="32px" id="Layer_1" version="1.0" viewBox="0 0 32 32" width="32px" xml:space="preserve" xmlns="http://www.w3.org/2000/svg" xmlns:xlink="http://www.w3.org/1999/xlink"><g><path d="M26.594,6.406C23.656,3.469,20.125,2,16,2c-0.75,0-1.479,0.062-2.188,0.188   c-0.042-0.041-0.062-0.083-0.062-0.125c0.458-0.333,0.625-0.708,0.5-1.125C14.125,0.312,13.646,0,12.812,0   c-0.167,0-0.334,0.021-0.5,0.062c-0.459,0.084-0.823,0.281-1.094,0.594c-0.271,0.312-0.365,0.636-0.281,0.969   c0.083,0.459,0.396,0.75,0.938,0.875v0.062C8.708,3.479,6.104,5.271,4.062,7.938C2.021,10.604,1,13.625,1,17   c0,4.125,1.469,7.656,4.406,10.594S11.875,32,16,32s7.656-1.469,10.594-4.406S31,21.125,31,17S29.531,9.344,26.594,6.406z    M24.062,25.062c-1.375,1.375-3,2.334-4.875,2.875l-1.312-2.188l-0.375,2.5c-0.5,0.084-1,0.125-1.5,0.125   c-3.125,0-5.812-1.104-8.062-3.312c-1.375-1.375-2.334-3-2.875-4.875l2.188-1.312L4.75,18.5c-0.084-0.5-0.125-1-0.125-1.5   c0-3.125,1.104-5.812,3.312-8.062c1.375-1.375,3-2.333,4.875-2.875l1.312,2.188l0.375-2.5c0.5-0.083,1-0.125,1.5-0.125   c3.125,0,5.812,1.104,8.062,3.312c1.375,1.375,2.333,3,2.875,4.875l-2.188,1.312l2.5,0.375c0.083,0.5,0.125,1,0.125,1.5   C27.375,20.125,26.271,22.812,24.062,25.062z" fill="#E6E6E6"/><path d="M13.5,15.375c-0.459,0.709-0.604,1.459-0.438,2.25c0.041,0.167,0.104,0.354,0.188,0.562l1.688-2.25l2.25-1.688   c-0.25-0.125-0.521-0.208-0.812-0.25c-0.125,0-0.25,0-0.375,0c-0.209,0-0.417,0.021-0.625,0.062   C14.583,14.229,13.958,14.667,13.5,15.375z"/><path d="M18.75,18.188C19,17.604,19.062,17,18.938,16.375c-0.042-0.166-0.104-0.354-0.188-0.562l-1.688,2.25l-2.25,1.688   c0.25,0.125,0.521,0.209,0.812,0.25c0.125,0,0.25,0,0.375,0c0.208,0,0.416-0.021,0.625-0.062c0.333-0.083,0.646-0.208,0.938-0.375   C18.104,19.229,18.5,18.771,18.75,18.188z"/><path d="M27.25,15.484l-2.5-0.375l2.188-1.312c-0.542-1.875-1.5-3.5-2.875-4.875   C21.812,6.714,19.125,5.609,16,5.609c-0.5,0-1,0.042-1.5,0.125l-0.375,2.5l-1.312-2.188c-1.875,0.542-3.5,1.5-4.875,2.875   c-2.209,2.25-3.312,4.938-3.312,8.062c0,0.5,0.041,1,0.125,1.5l2.5,0.375l-2.188,1.312c0.541,1.875,1.5,3.5,2.875,4.875   c2.25,2.209,4.938,3.312,8.062,3.312c0.5,0,1-0.041,1.5-0.125l0.375-2.5l1.312,2.188c1.875-0.541,3.5-1.5,4.875-2.875   c2.208-2.25,3.312-4.938,3.312-8.062C27.375,16.484,27.333,15.984,27.25,15.484z" fill="#188FD1"/><path d="M20.698,18.71l-2.202-1.748c0-0.029-0.007-0.057-0.009-0.086l3.856-2.834l-4.646,1.132   c-0.021-0.019-0.043-0.034-0.063-0.053l0.076-2.819l-1.748,2.202c-0.029,0-0.057,0.007-0.086,0.009l-2.835-3.856l1.133,4.646   c-0.019,0.021-0.035,0.043-0.053,0.064l-2.819-0.077l2.202,1.749c0,0.029,0.007,0.057,0.009,0.086l-3.857,2.834l4.647-1.133   c0.021,0.019,0.043,0.035,0.064,0.053l-0.077,2.82l1.747-2.203c0.029,0,0.057-0.007,0.086-0.009l2.834,3.857l-1.131-4.647   c0.019-0.021,0.034-0.043,0.053-0.063L20.698,18.71z M16,19c-1.104,0-2-0.896-2-2s0.896-2,2-2s2,0.896,2,2S17.104,19,16,19z" opacity="0.2"/><polygon fill="#EA3939" points="17,18 23.777,9.222 15,16  "/><polygon fill="#FFFFFF" points="15,16 8.221,24.777 17,18  "/></g><g/><g/><g/><g/><g/><g/></svg>